<?xml version="1.0" encoding="UTF-8" standalone="no" ?>
<!DOCTYPE svg PUBLIC "-//W3C//DTD SVG 1.1//EN" "http://www.w3.org/Graphics/SVG/1.1/DTD/svg11.dtd">
<svg xmlns="http://www.w3.org/2000/svg" xmlns:xlink="http://www.w3.org/1999/xlink" version="1.1" width="1080" height="1080" viewBox="0 0 1080 1080" xml:space="preserve">
<desc>Created with Fabric.js 5.2.4</desc>
<defs>
</defs>
<rect x="0" y="0" width="100%" height="100%" fill="transparent"></rect>
<g transform="matrix(0 0 0 0 0 0)" id="0377b414-84dc-446c-9dc5-61384be65329"  >
</g>
<g transform="matrix(1 0 0 1 540 540)" id="f9b64050-84e3-40ee-b71b-537ed3e56a22"  >
<rect style="stroke: none; stroke-width: 1; stroke-dasharray: none; stroke-linecap: butt; stroke-dashoffset: 0; stroke-linejoin: miter; stroke-miterlimit: 4; fill: rgb(255,255,255); fill-rule: nonzero; opacity: 1; visibility: hidden;" vector-effect="non-scaling-stroke"  x="-540" y="-540" rx="0" ry="0" width="1080" height="1080" />
</g>
<g transform="matrix(14.05 0 0 14.05 540 540)"  >
<path style="stroke: rgb(0,0,0); stroke-width: 0; stroke-dasharray: none; stroke-linecap: butt; stroke-dashoffset: 0; stroke-linejoin: miter; stroke-miterlimit: 4; fill: rgb(31,40,194); fill-rule: nonzero; opacity: 1;" vector-effect="non-scaling-stroke"  transform=" translate(-50, -50)" d="M 49.493 79.785 C 57.364000000000004 79.785 63.621 79.719 68.33 79.651 L 80.103 79.651 C 83.12899999999999 79.651 85.08099999999999 78.708 85.952 76.893 C 86.828 75.009 87.301 73.396 87.301 71.982 L 87.301 37.943 C 87.301 36.531 86.828 34.983999999999995 85.952 33.099 C 85.081 31.284999999999997 83.13 30.410999999999998 80.103 30.475999999999996 C 77.14099999999999 30.475999999999996 74.184 30.475999999999996 71.222 30.410999999999994 C 68.25999999999999 30.410999999999994 65.303 30.340999999999994 62.34199999999999 30.340999999999994 C 62.61099999999999 28.660999999999994 62.544999999999995 26.574999999999996 62.14199999999999 24.018999999999995 C 61.80399999999999 21.462999999999994 60.59399999999999 20.185999999999993 58.508999999999986 20.185999999999993 L 41.489 20.185999999999993 C 39.943999999999996 20.185999999999993 38.934999999999995 20.857999999999993 38.394999999999996 22.26899999999999 C 37.925 23.682999999999993 37.656 25.16399999999999 37.656 26.641999999999992 L 37.656 30.339999999999993 C 34.695 30.339999999999993 31.738 30.409999999999993 28.775999999999996 30.409999999999993 C 25.816999999999997 30.474999999999994 22.857999999999997 30.474999999999994 19.897999999999996 30.474999999999994 C 17.002999999999997 30.409999999999993 15.121999999999996 31.283999999999995 14.110999999999997 33.09799999999999 C 13.169999999999996 34.98199999999999 12.698999999999998 36.529999999999994 12.698999999999998 37.94199999999999 L 12.698999999999998 72.18299999999999 C 12.698999999999998 73.52999999999999 13.169999999999998 75.142 14.045999999999998 76.892 C 14.986999999999998 78.70599999999999 16.938 79.64999999999999 19.897999999999996 79.64999999999999 L 28.775999999999996 79.64999999999999 C 31.737999999999996 79.71699999999998 34.69499999999999 79.71699999999998 37.656 79.71699999999998 C 37.723 79.785 41.693 79.853 49.493 79.785 z M 41.354 26.106 C 41.623 24.423000000000002 42.432 23.617 43.842999999999996 23.617 C 45.928999999999995 23.617 47.812999999999995 23.617 49.492999999999995 23.548000000000002 C 51.175999999999995 23.548000000000002 53.461999999999996 23.483 56.358 23.483 C 57.498999999999995 23.483 58.239999999999995 24.021 58.643 25.031 C 59.046 25.971999999999998 59.25 26.98 59.25 27.854 C 59.25 28.797 59.181 29.537 59.115 30.208 L 41.22 30.208 C 41.085 29.065 41.085 27.719 41.354 26.106 z" stroke-linecap="round" />
</g>
<g transform="matrix(7.48 0 0 7.48 509.83 620.68)"  >
<g style="" vector-effect="non-scaling-stroke"   >
		<g transform="matrix(1 0 0 1 9.81 -11.42)"  >
<polygon style="stroke: none; stroke-width: 1; stroke-dasharray: none; stroke-linecap: butt; stroke-dashoffset: 0; stroke-linejoin: miter; stroke-miterlimit: 4; fill: rgb(255,175,8); fill-rule: nonzero; opacity: 1;" vector-effect="non-scaling-stroke"  points="13.2,12.39 -20.64,12.39 -24.78,-12.39 24.78,-12.39 " />
</g>
		<g transform="matrix(1 0 0 1 -2.46 -9.22)"  >
<path style="stroke: none; stroke-width: 1; stroke-dasharray: none; stroke-linecap: butt; stroke-dashoffset: 0; stroke-linejoin: miter; stroke-miterlimit: 4; fill: rgb(255,175,8); fill-rule: nonzero; opacity: 1;" vector-effect="non-scaling-stroke"  transform=" translate(-45.13, -40.78)" d="M 14.243 21.477 C 13.037 20.745 12.669 19.225 13.351 18.019 C 14.084000000000001 16.813 15.654 16.395 16.86 17.127 C 22.674 20.585 26.655 26.713 29.38 34.729 C 31.791 41.8 33.202 50.339 34.094 59.717 L 74.74 59.717 C 76.104 59.717 77.256 60.867 77.256 62.282 C 77.256 63.696999999999996 76.105 64.79599999999999 74.74 64.79599999999999 L 32 64.79599999999999 C 30.585 64.89999999999999 29.38 63.90599999999999 29.275 62.49199999999999 C 28.438 52.53899999999999 27.023 43.57999999999999 24.561999999999998 36.352999999999994 C 22.205 29.491 18.956 24.252 14.243 21.477 z" stroke-linecap="round" />
</g>
		<g transform="matrix(1 0 0 1 -13.6 26.06)"  >
<circle style="stroke: none; stroke-width: 1; stroke-dasharray: none; stroke-linecap: butt; stroke-dashoffset: 0; stroke-linejoin: miter; stroke-miterlimit: 4; fill: rgb(255,175,8); fill-rule: nonzero; opacity: 1;" vector-effect="non-scaling-stroke"  cx="0" cy="0" r="7.176" />
</g>
		<g transform="matrix(1 0 0 1 21.91 26.06)"  >
<circle style="stroke: none; stroke-width: 1; stroke-dasharray: none; stroke-linecap: butt; stroke-dashoffset: 0; stroke-linejoin: miter; stroke-miterlimit: 4; fill: rgb(255,175,8); fill-rule: nonzero; opacity: 1;" vector-effect="non-scaling-stroke"  cx="0" cy="0" r="7.176" />
</g>
</g>
</g>
</svg>